<mxfile host="65bd71144e">
    <diagram id="RODyhdtvG1J-uTUDdDKB" name="Page-1">
        <mxGraphModel dx="990" dy="551" grid="1" gridSize="10" guides="1" tooltips="1" connect="1" arrows="1" fold="1" page="1" pageScale="1" pageWidth="827" pageHeight="1169" math="0" shadow="0">
            <root>
                <mxCell id="0"/>
                <mxCell id="1" parent="0"/>
                <mxCell id="2" value="prueba19aug" style="swimlane;labelBackgroundColor=default;" vertex="1" parent="1">
                    <mxGeometry x="120" y="50" width="910" height="700" as="geometry"/>
                </mxCell>
                <mxCell id="3" value="Pool" style="swimlane;childLayout=stackLayout;resizeParent=1;resizeParentMax=0;horizontal=1;startSize=40;horizontalStack=0;labelBackgroundColor=default;" vertex="1" parent="2">
                    <mxGeometry x="40" y="70" width="800" height="400" as="geometry"/>
                </mxCell>
                <mxCell id="4" value="Users" style="swimlane;startSize=40;horizontal=0;labelBackgroundColor=default;" vertex="1" parent="3">
                    <mxGeometry y="40" width="800" height="120" as="geometry"/>
                </mxCell>
                <mxCell id="7" value="user_id" style="whiteSpace=wrap;html=1;align=center;labelBackgroundColor=default;" vertex="1" parent="4">
                    <mxGeometry x="80" y="40" width="100" height="40" as="geometry"/>
                </mxCell>
                <mxCell id="9" value="user_name&lt;span style=&quot;color: rgba(0 , 0 , 0 , 0) ; font-family: monospace ; font-size: 0px&quot;&gt;%3CmxGraphModel%3E%3Croot%3E%3CmxCell%20id%3D%220%22%2F%3E%3CmxCell%20id%3D%221%22%20parent%3D%220%22%2F%3E%3CmxCell%20id%3D%222%22%20value%3D%22user_id%22%20style%3D%22whiteSpace%3Dwrap%3Bhtml%3D1%3Balign%3Dcenter%3BlabelBackgroundColor%3Ddefault%3B%22%20vertex%3D%221%22%20parent%3D%221%22%3E%3CmxGeometry%20x%3D%22240%22%20y%3D%22200%22%20width%3D%22100%22%20height%3D%2240%22%20as%3D%22geometry%22%2F%3E%3C%2FmxCell%3E%3C%2Froot%3E%3C%2FmxGraphModel%3E&lt;/span&gt;" style="whiteSpace=wrap;html=1;align=center;labelBackgroundColor=default;" vertex="1" parent="4">
                    <mxGeometry x="180" y="40" width="100" height="40" as="geometry"/>
                </mxCell>
                <mxCell id="10" value="password" style="whiteSpace=wrap;html=1;align=center;labelBackgroundColor=default;" vertex="1" parent="4">
                    <mxGeometry x="280" y="40" width="100" height="40" as="geometry"/>
                </mxCell>
                <mxCell id="11" value="bio" style="whiteSpace=wrap;html=1;align=center;labelBackgroundColor=default;" vertex="1" parent="4">
                    <mxGeometry x="380" y="40" width="100" height="40" as="geometry"/>
                </mxCell>
                <mxCell id="12" value="created_at" style="whiteSpace=wrap;html=1;align=center;labelBackgroundColor=default;" vertex="1" parent="4">
                    <mxGeometry x="480" y="40" width="100" height="40" as="geometry"/>
                </mxCell>
                <mxCell id="13" value="update_at" style="whiteSpace=wrap;html=1;align=center;labelBackgroundColor=default;" vertex="1" parent="4">
                    <mxGeometry x="580" y="40" width="100" height="40" as="geometry"/>
                </mxCell>
                <mxCell id="14" value="delete_at" style="whiteSpace=wrap;html=1;align=center;labelBackgroundColor=default;" vertex="1" parent="4">
                    <mxGeometry x="680" y="40" width="100" height="40" as="geometry"/>
                </mxCell>
                <mxCell id="5" value="Comments" style="swimlane;startSize=40;horizontal=0;labelBackgroundColor=default;" vertex="1" parent="3">
                    <mxGeometry y="160" width="800" height="120" as="geometry"/>
                </mxCell>
                <mxCell id="15" value="comment_id" style="whiteSpace=wrap;html=1;align=center;labelBackgroundColor=default;" vertex="1" parent="5">
                    <mxGeometry x="70" y="40" width="100" height="40" as="geometry"/>
                </mxCell>
                <mxCell id="16" value="body" style="whiteSpace=wrap;html=1;align=center;labelBackgroundColor=default;" vertex="1" parent="5">
                    <mxGeometry x="170" y="40" width="100" height="40" as="geometry"/>
                </mxCell>
                <mxCell id="19" value="created_at" style="whiteSpace=wrap;html=1;align=center;labelBackgroundColor=default;" vertex="1" parent="5">
                    <mxGeometry x="270" y="40" width="100" height="40" as="geometry"/>
                </mxCell>
                <mxCell id="21" value="delete_at" style="whiteSpace=wrap;html=1;align=center;labelBackgroundColor=default;" vertex="1" parent="5">
                    <mxGeometry x="370" y="40" width="100" height="40" as="geometry"/>
                </mxCell>
                <mxCell id="6" value="Articles" style="swimlane;startSize=40;horizontal=0;labelBackgroundColor=default;" vertex="1" parent="3">
                    <mxGeometry y="280" width="800" height="120" as="geometry"/>
                </mxCell>
                <mxCell id="30" value="articles_id" style="whiteSpace=wrap;html=1;align=center;labelBackgroundColor=default;" vertex="1" parent="6">
                    <mxGeometry x="80" y="40" width="100" height="40" as="geometry"/>
                </mxCell>
                <mxCell id="31" value="title" style="whiteSpace=wrap;html=1;align=center;labelBackgroundColor=default;" vertex="1" parent="6">
                    <mxGeometry x="180" y="40" width="100" height="40" as="geometry"/>
                </mxCell>
                <mxCell id="32" value="body" style="whiteSpace=wrap;html=1;align=center;labelBackgroundColor=default;" vertex="1" parent="6">
                    <mxGeometry x="280" y="40" width="100" height="40" as="geometry"/>
                </mxCell>
                <mxCell id="33" value="description" style="whiteSpace=wrap;html=1;align=center;labelBackgroundColor=default;" vertex="1" parent="6">
                    <mxGeometry x="380" y="40" width="100" height="40" as="geometry"/>
                </mxCell>
                <mxCell id="34" value="created_at" style="whiteSpace=wrap;html=1;align=center;labelBackgroundColor=default;" vertex="1" parent="6">
                    <mxGeometry x="480" y="40" width="100" height="40" as="geometry"/>
                </mxCell>
                <mxCell id="35" value="update_at" style="whiteSpace=wrap;html=1;align=center;labelBackgroundColor=default;" vertex="1" parent="6">
                    <mxGeometry x="580" y="40" width="100" height="40" as="geometry"/>
                </mxCell>
                <mxCell id="36" value="delete_at" style="whiteSpace=wrap;html=1;align=center;labelBackgroundColor=default;" vertex="1" parent="6">
                    <mxGeometry x="680" y="40" width="100" height="40" as="geometry"/>
                </mxCell>
                <mxCell id="37" value="blocked_users" style="swimlane;startSize=40;horizontal=0;labelBackgroundColor=default;" vertex="1" parent="2">
                    <mxGeometry x="40" y="470" width="800" height="120" as="geometry"/>
                </mxCell>
                <mxCell id="38" value="user_id" style="whiteSpace=wrap;html=1;align=center;labelBackgroundColor=default;" vertex="1" parent="37">
                    <mxGeometry x="80" y="40" width="100" height="40" as="geometry"/>
                </mxCell>
                <mxCell id="39" value="article_id" style="whiteSpace=wrap;html=1;align=center;labelBackgroundColor=default;" vertex="1" parent="37">
                    <mxGeometry x="180" y="40" width="100" height="40" as="geometry"/>
                </mxCell>
            </root>
        </mxGraphModel>
    </diagram>
</mxfile>